<?xml version="1.0" encoding="UTF-8"?>
<svg width="214px" height="137px" viewBox="0 0 214 137" version="1.1" xmlns="http://www.w3.org/2000/svg" xmlns:xlink="http://www.w3.org/1999/xlink">
    <!-- Generator: Sketch 43.1 (39012) - http://www.bohemiancoding.com/sketch -->
    <title>helsi_logo</title>
    <desc>Created with Sketch.</desc>
    <defs></defs>
    <g id="Page-1" stroke="none" stroke-width="1" fill="none" fill-rule="evenodd">
        <g id="Artboard" transform="translate(-93.000000, -119.000000)">
            <g id="лого" transform="translate(93.000000, 118.000000)">
                <path d="M179.909,69.603 C179.643,50.973 164.383,35.899 145.663,35.899 C128.609,35.899 114.73,46.97 111.91,62.837 C111.85,63.259 111.969,63.666 112.245,63.986 C112.538,64.324 112.981,64.526 113.43,64.526 L121.795,64.548 L121.917,64.533 C122.671,64.345 122.937,63.877 123.022,63.536 C126.034,53.198 135.692,46.238 146.484,46.58 C159.07,47.029 169.311,57.83 169.311,70.658 L169.311,78.85 C169.311,79.679 169.913,80.282 170.743,80.282 L179.04,80.282 C191.887,80.282 202.704,90.506 203.153,103.069 C203.33,109.5 200.959,115.579 196.478,120.185 C192.002,124.786 186.008,127.319 179.6,127.319 L113.809,127.319 C112.979,127.319 112.376,127.92 112.376,128.749 L112.376,136.57 C112.376,137.399 112.979,138 113.809,138 L179.6,138 C198.485,138 213.85,122.659 213.85,103.795 C213.662,85.105 198.484,69.87 179.909,69.603 M154.427,85.651 L154.427,114.138 C154.427,114.696 154.8,115.069 155.359,115.069 L163.191,115.069 C163.75,115.069 164.123,114.696 164.123,114.138 L164.123,85.602 C164.123,85.043 163.657,84.578 163.098,84.671 L155.266,84.72 C154.8,84.813 154.427,85.185 154.427,85.651 M136.526,115.813 C132.797,115.813 129.068,114.976 126.644,113.952 C126.178,113.766 125.991,113.207 126.178,112.742 L128.508,107.249 C128.695,106.783 129.254,106.504 129.721,106.783 C131.492,107.621 134.475,108.366 136.247,108.366 C138.484,108.366 139.883,107.342 139.883,105.759 C139.883,103.991 138.111,103.153 135.874,102.408 C132.145,101.104 126.644,99.149 126.644,92.726 C126.644,86.861 131.119,83.044 138.857,83.044 C142.68,83.044 145.85,83.789 148.274,84.906 C148.74,85.092 148.926,85.651 148.74,86.116 L146.596,90.864 C146.409,91.33 145.85,91.516 145.383,91.33 C143.985,90.678 141.748,90.026 140.163,90.026 C137.925,90.026 136.526,91.05 136.526,92.633 C136.526,94.588 138.298,95.332 140.628,96.17 C144.451,97.474 149.952,99.243 149.952,105.852 C149.952,111.904 145.477,115.813 136.526,115.813 M112.006,75.9 L112.006,114.138 C112.006,114.696 112.379,115.069 112.938,115.069 L120.77,115.069 C121.33,115.069 121.703,114.696 121.703,114.138 L121.703,75.898 C121.703,75.34 121.298,74.956 120.677,74.967 C120.677,74.967 114.718,74.956 112.845,74.969 C112.278,74.973 112.006,75.434 112.006,75.9 M106.878,100.639 L87.206,103.246 C87.952,106.69 90.936,108.366 94.852,108.366 C97.648,108.366 100.632,107.808 102.87,106.783 C103.336,106.597 103.895,106.876 104.082,107.342 L106.133,112.742 C106.319,113.207 106.04,113.766 105.573,113.952 C102.683,115.069 98.395,115.907 94.106,115.907 C83.198,115.907 77.79,108.738 77.79,99.429 C77.79,89.747 83.384,83.044 92.894,83.044 C102.124,83.044 106.972,89.188 106.972,97.846 C107.065,98.684 107.065,99.615 106.878,100.639 Z M92.707,89.654 C89.351,89.654 86.647,91.981 86.647,97.194 L97.742,95.798 C97.742,91.888 95.784,89.654 92.707,89.654 Z M61.568,83.044 C59.423,83.044 57.279,83.603 55.507,84.347 L55.395,68.394 C55.395,67.835 54.928,67.37 54.369,67.462 L46.649,67.451 C46.183,67.544 45.81,67.916 45.81,68.381 L45.812,114.231 C45.812,114.789 46.184,115.162 46.744,115.162 L54.575,115.162 C55.135,115.162 55.507,114.789 55.507,114.231 L55.507,91.422 C56.44,90.957 57.745,90.585 59.05,90.585 C62.127,90.585 63.619,92.074 63.619,94.867 L63.619,114.231 C63.619,114.789 63.992,115.162 64.551,115.162 L72.383,115.162 C72.942,115.162 73.315,114.789 73.315,114.231 L73.315,93.843 C73.222,86.861 69.12,83.044 61.568,83.044" id="Combined-Shape" fill="#FE8380" fill-rule="nonzero"></path>
                <path d="M131.773,25.506 C124.302,9.925 109.554,0.988 91.309,0.988 C66.164,0.988 45.676,21.283 45.407,46.328 C20.322,46.595 0,67.054 0,92.163 C0,117.438 20.593,138 45.904,138 L100.254,138 C101.084,138 101.687,137.399 101.687,136.57 L101.687,128.749 C101.687,127.92 101.084,127.319 100.254,127.319 L46.558,127.319 C27.237,127.319 11.15,111.918 10.696,92.99 C10.476,83.455 14.023,74.449 20.687,67.628 C27.38,60.78 36.335,57.008 45.904,57.008 L54.668,57.008 C55.498,57.008 56.101,56.406 56.101,55.577 L56.101,47.478 C56.101,28.609 71.761,12.211 90.299,11.669 C104.674,11.218 116.246,17.871 122.001,29.912 C122.284,30.618 123.116,30.954 123.885,30.646 L131.042,27.397 C131.372,27.265 131.633,27.008 131.775,26.674 C131.929,26.316 131.933,25.902 131.773,25.506" id="path-15-path" fill="#63AEFF"></path>
            </g>
        </g>
    </g>
</svg>
